#!OML:ASF F:\VICON\USERDATA\INSTALL\Justin_Nancy\Justin_Nancy.ASF
:FULLY-SPECIFIED
:DEGREES
214
root 0.0483765 16.6551 25.5959 0.422593 5.88233 8.82259
lowerback 3.74966 -3.13032 -10.0498
upperback 0.183927 -4.58269 0.727281
thorax -1.06624 -2.24318 6.56933
lowerneck -18.0589 -2.25477 -10.3444
upperneck 20.7471 -1.01298 3.54243
head 9.64453 -0.890328 2.81299
rclavicle 2.0276e-014 -1.59028e-015
rhumerus -45.4698 -17.7117 -71.9787
rradius 26.1486
rwrist 11.7147
rhand -13.256 12.0301
rfingers 7.12502
rthumb 12.8464 -17.5546
lclavicle 2.0276e-014 -1.59028e-015
lhumerus -24.1776 -1.77176 80.6149
lradius 41.3427
lwrist -4.185
lhand -15.8007 25.0904
lfingers 7.12502
lthumb 10.3924 54.8136
rfemur -32.5209 -1.18308 11.2135
rtibia 22.5446
rfoot -6.93767 -6.87516
rtoes -6.58326
lfemur 20.1293 -5.16476 -32.028
ltibia 19.9766
lfoot -9.20958 -8.949
ltoes -22.6517
215
root 0.0254386 16.6699 25.8951 0.227338 6.10339 8.71263
lowerback 3.59757 -3.21288 -10.057
upperback 0.297947 -4.6689 0.805453
thorax -0.837879 -2.30324 6.64084
lowerneck -18.0661 -2.21205 -10.3282
upperneck 20.5251 -0.934888 3.45034
head 9.56148 -0.857213 2.78488
rclavicle -9.19379e-015 -1.51076e-014
rhumerus -45.5323 -18.0226 -71.6305
rradius 25.7566
rwrist 11.7256
rhand -13.1493 11.5529
rfingers 7.12502
rthumb 12.9493 -18.0253
lclavicle -9.19379e-015 -1.51076e-014
lhumerus -24.2063 -1.03485 80.4494
lradius 41.7771
lwrist -4.02198
lhand -15.5321 25.9672
lfingers 7.12502
lthumb 10.6515 55.6772
rfemur -32.115 -0.69201 11.333
rtibia 24.1834
rfoot -6.26372 -6.34833
rtoes -6.54844
lfemur 20.1725 -5.52347 -31.8207
ltibia 21.5031
lfoot -6.48623 -9.79871
ltoes -21.6744
216
root -0.00419047 16.7028 26.1911 0.0130181 6.36321 8.12666
lowerback 3.62118 -3.26849 -9.60463
upperback 0.195724 -4.73065 0.981042
thorax -0.967826 -2.32561 6.57937
lowerneck -17.8181 -2.12289 -10.2383
upperneck 20.6523 -0.854921 3.40344
head 9.55365 -0.823216 2.76605
rclavicle 9.98893e-015 -2.38542e-014
rhumerus -45.8501 -18.5423 -70.9909
rradius 25.0359
rwrist 12.3474
rhand -13.1742 11.4293
rfingers 7.12502
rthumb 12.9253 -18.1504
lclavicle 9.98893e-015 -2.38542e-014
lhumerus -24.5668 -0.586448 80.3213
lradius 42.1076
lwrist -3.86659
lhand -14.9599 26.7191
lfingers 7.12502
lthumb 11.2035 56.4
rfemur -31.6757 -0.0259167 11.8239
rtibia 25.2586
rfoot -4.0451 -5.92046
rtoes -7.79366
lfemur 19.8081 -5.78966 -30.9922
ltibia 23.5118
lfoot -4.00154 -10.7487
ltoes -22.7972
217
root -0.0299077 16.7371 26.4833 -0.280762 6.6624 7.37893
lowerback 3.91039 -3.32116 -8.95903
upperback -0.0408147 -4.8099 1.2228
thorax -1.39432 -2.33884 6.50527
lowerneck -17.4263 -2.04733 -10.3179
upperneck 20.91 -0.782187 3.43896
head 9.56748 -0.801063 2.8049
rclavicle 2.50717e-014 2.3059e-014
rhumerus -46.4431 -18.6314 -70.4322
rradius 24.6141
rwrist 12.5877
rhand -13.0915 11.1465
rfingers 7.12502
rthumb 13.005 -18.4281
lclavicle 2.50717e-014 2.3059e-014
lhumerus -25.114 -0.0949871 80.2846
lradius 42.2443
lwrist -3.61385
lhand -14.8882 26.7649
lfingers 7.12502
lthumb 11.2726 56.442
rfemur -31.1321 0.25066 12.5547
rtibia 25.9677
rfoot -1.92643 -5.12402
rtoes -10.6491
lfemur 19.1416 -6.01096 -29.9505
ltibia 25.8338
lfoot -1.0281 -11.7573
ltoes -24.4264
218
root -0.0599026 16.7632 26.7684 -0.491035 6.6652 6.59914
lowerback 4.1396 -3.28633 -8.34844
upperback -0.205214 -4.75747 1.5091
thorax -1.72795 -2.29548 6.48723
lowerneck -17.4875 -2.03513 -10.4702
upperneck 21.2219 -0.7349 3.52347
head 9.68677 -0.790133 2.87129
rclavicle -1.58779e-014 -1.59028e-015
rhumerus -46.882 -18.6909 -70.0146
rradius 24.494
rwrist 12.6303
rhand -12.9128 10.537
rfingers 7.12502
rthumb 13.1772 -19.0265
lclavicle -1.58779e-014 -1.59028e-015
lhumerus -25.4314 0.531766 80.2861
lradius 42.3326
lwrist -3.44367
lhand -15.1604 26.242
lfingers 7.12502
lthumb 11.01 55.9333
rfemur -30.7443 0.835516 13.3728
rtibia 26.6377
rfoot -0.849183 -4.09709
rtoes -11.3295
lfemur 18.0096 -6.07234 -28.8529
ltibia 28.3784
lfoot 2.88324 -12.6471
ltoes -24.5125
219
root -0.0912252 16.7813 27.0557 -0.741945 6.48282 5.63472
lowerback 4.34004 -3.20417 -7.56273
upperback -0.314977 -4.62147 1.84663
thorax -2.01065 -2.21805 6.41613
lowerneck -17.7539 -2.04014 -10.557
upperneck 21.6395 -0.680283 3.50837
head 9.88168 -0.784241 2.89508
rclavicle -2.168e-014 1.59028e-014
rhumerus -47.1708 -18.9734 -69.4597
rradius 24.1606
rwrist 13.0322
rhand -13.0136 10.6619
rfingers 7.12502
rthumb 13.0801 -18.9079
lclavicle -2.168e-014 1.59028e-014
lhumerus -25.8163 1.06108 80.2994
lradius 42.5202
lwrist -3.21291
lhand -15.2804 23.3389
lfingers 7.12502
lthumb 10.8943 53.0363
rfemur -30.3332 1.73442 14.4528
rtibia 27.5507
rfoot -0.396753 -3.19328
rtoes -8.32462
lfemur 16.7644 -5.94511 -27.5359
ltibia 31.0834
lfoot 7.10148 -13.3668
ltoes -23.1165
